<mxfile host="app.diagrams.net" modified="2022-06-27T04:04:17.627Z" agent="5.0 (Windows NT 10.0; Win64; x64) AppleWebKit/537.36 (KHTML, like Gecko) Chrome/102.0.0.0 Safari/537.36" etag="P52UuJxHZ3NrpyrqsZzg" version="20.0.3" type="github" pages="2">
  <diagram id="870bee5f-fca8-f7f1-4fa7-7f8322daee49" name="Simple tree">
    <mxGraphModel dx="868" dy="1588" grid="1" gridSize="10" guides="1" tooltips="1" connect="1" arrows="1" fold="1" page="1" pageScale="1" pageWidth="850" pageHeight="1100" math="0" shadow="0">
      <root>
        <mxCell id="0" />
        <mxCell id="1" parent="0" />
        <mxCell id="6b2df6da06c5d395-3" value="" style="edgeStyle=orthogonalEdgeStyle;rounded=0;html=1;jettySize=auto;orthogonalLoop=1;exitX=0.5;exitY=1;" parent="1" source="6b2df6da06c5d395-1" target="6b2df6da06c5d395-2" edge="1">
          <mxGeometry relative="1" as="geometry" />
        </mxCell>
        <mxCell id="6b2df6da06c5d395-41" style="edgeStyle=orthogonalEdgeStyle;rounded=0;html=1;endArrow=classic;endFill=1;jettySize=auto;orthogonalLoop=1;strokeColor=#000000;fontColor=#006633;" parent="1" source="6b2df6da06c5d395-1" target="6b2df6da06c5d395-40" edge="1">
          <mxGeometry relative="1" as="geometry" />
        </mxCell>
        <UserObject label="Father" treeRoot="1" id="6b2df6da06c5d395-1">
          <mxCell style="whiteSpace=wrap;html=1;align=center;treeFolding=1;container=1;recursiveResize=0;fillColor=#f5f5f5;strokeColor=#666666;fontColor=#333333;" parent="1" vertex="1">
            <mxGeometry x="360" y="40" width="120" height="60" as="geometry" />
          </mxCell>
        </UserObject>
        <UserObject label="Son 1" treeRoot="1" id="6b2df6da06c5d395-2">
          <mxCell style="whiteSpace=wrap;html=1;align=center;treeFolding=1;container=1;recursiveResize=0;fillColor=#ffe6cc;strokeColor=#d79b00;" parent="1" vertex="1">
            <mxGeometry x="180" y="150" width="120" height="60" as="geometry" />
          </mxCell>
        </UserObject>
        <mxCell id="6b2df6da06c5d395-19" value="Mother" style="whiteSpace=wrap;html=1;align=center;verticalAlign=middle;container=1;recursiveResize=0;treeFolding=1;fillColor=#e1d5e7;strokeColor=#9673a6;flipV=1;" parent="1" vertex="1">
          <mxGeometry x="560" y="150" width="100" height="60" as="geometry" />
        </mxCell>
        <mxCell id="6b2df6da06c5d395-20" value="" style="edgeStyle=elbowEdgeStyle;elbow=vertical;startArrow=none;endArrow=none;rounded=0;exitX=0.5;exitY=1;" parent="1" source="6b2df6da06c5d395-1" target="6b2df6da06c5d395-19" edge="1">
          <mxGeometry relative="1" as="geometry">
            <mxPoint x="190" y="100" as="sourcePoint" />
          </mxGeometry>
        </mxCell>
        <mxCell id="6b2df6da06c5d395-40" value="Sacrifice Son" style="whiteSpace=wrap;html=1;align=center;verticalAlign=middle;container=1;recursiveResize=0;treeFolding=1;fillColor=#dae8fc;strokeColor=#6c8ebf;" parent="1" vertex="1">
          <mxGeometry x="370" y="150" width="100" height="60" as="geometry" />
        </mxCell>
        <mxCell id="2aVQdKcsX4YJ5Md-uBww-1" value="" style="edgeStyle=orthogonalEdgeStyle;rounded=0;html=1;jettySize=auto;orthogonalLoop=1;exitX=0.5;exitY=1;" parent="1" source="2aVQdKcsX4YJ5Md-uBww-3" target="2aVQdKcsX4YJ5Md-uBww-4" edge="1">
          <mxGeometry relative="1" as="geometry" />
        </mxCell>
        <mxCell id="2aVQdKcsX4YJ5Md-uBww-2" style="edgeStyle=orthogonalEdgeStyle;rounded=0;html=1;endArrow=classic;endFill=1;jettySize=auto;orthogonalLoop=1;strokeColor=#000000;fontColor=#006633;" parent="1" source="2aVQdKcsX4YJ5Md-uBww-3" target="2aVQdKcsX4YJ5Md-uBww-7" edge="1">
          <mxGeometry relative="1" as="geometry" />
        </mxCell>
        <UserObject label="Sacrifice Father" treeRoot="1" id="2aVQdKcsX4YJ5Md-uBww-3">
          <mxCell style="whiteSpace=wrap;html=1;align=center;treeFolding=1;container=1;recursiveResize=0;fillColor=#f5f5f5;strokeColor=#666666;fontColor=#333333;" parent="1" vertex="1">
            <mxGeometry x="420" y="320" width="120" height="60" as="geometry" />
          </mxCell>
        </UserObject>
        <UserObject label="Sacrifice Mother&amp;nbsp;" treeRoot="1" id="2aVQdKcsX4YJ5Md-uBww-4">
          <mxCell style="whiteSpace=wrap;html=1;align=center;treeFolding=1;container=1;recursiveResize=0;fillColor=#ffe6cc;strokeColor=#d79b00;" parent="1" vertex="1">
            <mxGeometry x="240" y="430" width="120" height="60" as="geometry" />
          </mxCell>
        </UserObject>
        <mxCell id="2aVQdKcsX4YJ5Md-uBww-5" value="Sacrifice Son" style="whiteSpace=wrap;html=1;align=center;verticalAlign=middle;container=1;recursiveResize=0;treeFolding=1;fillColor=#e1d5e7;strokeColor=#9673a6;flipV=1;" parent="1" vertex="1">
          <mxGeometry x="620" y="430" width="100" height="60" as="geometry" />
        </mxCell>
        <mxCell id="2aVQdKcsX4YJ5Md-uBww-7" value="Sacrifice Daugther" style="whiteSpace=wrap;html=1;align=center;verticalAlign=middle;container=1;recursiveResize=0;treeFolding=1;fillColor=#dae8fc;strokeColor=#6c8ebf;" parent="1" vertex="1">
          <mxGeometry x="430" y="430" width="100" height="60" as="geometry" />
        </mxCell>
        <mxCell id="2aVQdKcsX4YJ5Md-uBww-8" value="" style="endArrow=classic;html=1;rounded=0;exitX=0.5;exitY=1;exitDx=0;exitDy=0;entryX=0.5;entryY=0;entryDx=0;entryDy=0;" parent="1" source="2aVQdKcsX4YJ5Md-uBww-3" target="2aVQdKcsX4YJ5Md-uBww-5" edge="1">
          <mxGeometry width="50" height="50" relative="1" as="geometry">
            <mxPoint x="670" y="340" as="sourcePoint" />
            <mxPoint x="720" y="290" as="targetPoint" />
            <Array as="points">
              <mxPoint x="480" y="410" />
              <mxPoint x="670" y="410" />
            </Array>
          </mxGeometry>
        </mxCell>
        <mxCell id="2aVQdKcsX4YJ5Md-uBww-10" value="" style="endArrow=classic;startArrow=classic;html=1;rounded=0;entryX=0.5;entryY=1;entryDx=0;entryDy=0;exitX=0.62;exitY=1;exitDx=0;exitDy=0;exitPerimeter=0;" parent="1" source="2aVQdKcsX4YJ5Md-uBww-5" target="6b2df6da06c5d395-40" edge="1">
          <mxGeometry width="50" height="50" relative="1" as="geometry">
            <mxPoint x="630" y="320" as="sourcePoint" />
            <mxPoint x="680" y="270" as="targetPoint" />
            <Array as="points">
              <mxPoint x="680" y="280" />
              <mxPoint x="420" y="280" />
            </Array>
          </mxGeometry>
        </mxCell>
        <mxCell id="2aVQdKcsX4YJ5Md-uBww-11" value="" style="endArrow=classic;startArrow=classic;html=1;rounded=0;exitX=0.417;exitY=1;exitDx=0;exitDy=0;exitPerimeter=0;entryX=0;entryY=0.5;entryDx=0;entryDy=0;" parent="1" source="6b2df6da06c5d395-2" target="2aVQdKcsX4YJ5Md-uBww-7" edge="1">
          <mxGeometry width="50" height="50" relative="1" as="geometry">
            <mxPoint x="300" y="360" as="sourcePoint" />
            <mxPoint x="350" y="310" as="targetPoint" />
            <Array as="points">
              <mxPoint x="230" y="280" />
              <mxPoint x="380" y="280" />
              <mxPoint x="380" y="460" />
            </Array>
          </mxGeometry>
        </mxCell>
        <mxCell id="2aVQdKcsX4YJ5Md-uBww-12" value="Boy friend" style="rounded=0;whiteSpace=wrap;html=1;" parent="1" vertex="1">
          <mxGeometry x="430" y="530" width="120" height="60" as="geometry" />
        </mxCell>
        <mxCell id="2aVQdKcsX4YJ5Md-uBww-13" value="" style="endArrow=classic;html=1;rounded=0;exitX=0.5;exitY=1;exitDx=0;exitDy=0;entryX=0.425;entryY=0;entryDx=0;entryDy=0;entryPerimeter=0;" parent="1" source="2aVQdKcsX4YJ5Md-uBww-7" target="2aVQdKcsX4YJ5Md-uBww-12" edge="1">
          <mxGeometry width="50" height="50" relative="1" as="geometry">
            <mxPoint x="310" y="610" as="sourcePoint" />
            <mxPoint x="360" y="560" as="targetPoint" />
          </mxGeometry>
        </mxCell>
        <mxCell id="2aVQdKcsX4YJ5Md-uBww-14" value="Relationship" style="text;html=1;align=center;verticalAlign=middle;resizable=0;points=[];autosize=1;strokeColor=none;fillColor=none;" parent="1" vertex="1">
          <mxGeometry x="245" y="275" width="90" height="30" as="geometry" />
        </mxCell>
        <mxCell id="dyM5a9dF4ckRkaVxoWVo-1" value="Adopted" style="text;html=1;align=center;verticalAlign=middle;resizable=0;points=[];autosize=1;strokeColor=none;fillColor=none;" vertex="1" parent="1">
          <mxGeometry x="485" y="245" width="70" height="30" as="geometry" />
        </mxCell>
        <mxCell id="dyM5a9dF4ckRkaVxoWVo-2" value="" style="endArrow=classic;startArrow=classic;html=1;rounded=0;exitX=1;exitY=0.5;exitDx=0;exitDy=0;entryX=0;entryY=0.5;entryDx=0;entryDy=0;" edge="1" parent="1" source="6b2df6da06c5d395-2" target="6b2df6da06c5d395-40">
          <mxGeometry width="50" height="50" relative="1" as="geometry">
            <mxPoint x="310" y="280" as="sourcePoint" />
            <mxPoint x="360" y="230" as="targetPoint" />
          </mxGeometry>
        </mxCell>
        <mxCell id="dyM5a9dF4ckRkaVxoWVo-3" value="good" style="text;html=1;align=center;verticalAlign=middle;resizable=0;points=[];autosize=1;strokeColor=none;fillColor=none;" vertex="1" parent="1">
          <mxGeometry x="305" y="175" width="50" height="30" as="geometry" />
        </mxCell>
        <mxCell id="dyM5a9dF4ckRkaVxoWVo-4" value="love 30" style="text;html=1;align=center;verticalAlign=middle;resizable=0;points=[];autosize=1;strokeColor=none;fillColor=none;" vertex="1" parent="1">
          <mxGeometry x="355" y="100" width="60" height="30" as="geometry" />
        </mxCell>
        <mxCell id="dyM5a9dF4ckRkaVxoWVo-5" value="love 70" style="text;html=1;align=center;verticalAlign=middle;resizable=0;points=[];autosize=1;strokeColor=none;fillColor=none;" vertex="1" parent="1">
          <mxGeometry x="420" y="120" width="60" height="30" as="geometry" />
        </mxCell>
        <mxCell id="dyM5a9dF4ckRkaVxoWVo-7" value="Family 2" style="rounded=0;whiteSpace=wrap;html=1;" vertex="1" parent="1">
          <mxGeometry y="40" width="120" height="60" as="geometry" />
        </mxCell>
        <mxCell id="dyM5a9dF4ckRkaVxoWVo-8" value="Family 3" style="rounded=0;whiteSpace=wrap;html=1;" vertex="1" parent="1">
          <mxGeometry x="740" y="40" width="120" height="60" as="geometry" />
        </mxCell>
        <mxCell id="dyM5a9dF4ckRkaVxoWVo-9" value="Khali Mata" style="rounded=0;whiteSpace=wrap;html=1;" vertex="1" parent="1">
          <mxGeometry x="360" y="-60" width="120" height="60" as="geometry" />
        </mxCell>
        <mxCell id="dyM5a9dF4ckRkaVxoWVo-10" value="" style="endArrow=classic;html=1;rounded=0;exitX=0;exitY=0.5;exitDx=0;exitDy=0;entryX=0.45;entryY=-0.033;entryDx=0;entryDy=0;entryPerimeter=0;" edge="1" parent="1" source="dyM5a9dF4ckRkaVxoWVo-9" target="dyM5a9dF4ckRkaVxoWVo-7">
          <mxGeometry width="50" height="50" relative="1" as="geometry">
            <mxPoint x="280" y="10" as="sourcePoint" />
            <mxPoint x="330" y="-40" as="targetPoint" />
            <Array as="points">
              <mxPoint x="54" y="-30" />
            </Array>
          </mxGeometry>
        </mxCell>
        <mxCell id="dyM5a9dF4ckRkaVxoWVo-11" value="" style="endArrow=classic;html=1;rounded=0;exitX=1;exitY=0.5;exitDx=0;exitDy=0;entryX=0.617;entryY=-0.033;entryDx=0;entryDy=0;entryPerimeter=0;" edge="1" parent="1" source="dyM5a9dF4ckRkaVxoWVo-9" target="dyM5a9dF4ckRkaVxoWVo-8">
          <mxGeometry width="50" height="50" relative="1" as="geometry">
            <mxPoint x="620" y="10" as="sourcePoint" />
            <mxPoint x="670" y="-40" as="targetPoint" />
            <Array as="points">
              <mxPoint x="814" y="-30" />
            </Array>
          </mxGeometry>
        </mxCell>
        <mxCell id="dyM5a9dF4ckRkaVxoWVo-12" value="" style="endArrow=classic;html=1;rounded=0;exitX=0.5;exitY=1;exitDx=0;exitDy=0;entryX=0.5;entryY=0;entryDx=0;entryDy=0;" edge="1" parent="1" source="dyM5a9dF4ckRkaVxoWVo-9" target="6b2df6da06c5d395-1">
          <mxGeometry width="50" height="50" relative="1" as="geometry">
            <mxPoint x="420" y="40" as="sourcePoint" />
            <mxPoint x="470" y="-10" as="targetPoint" />
          </mxGeometry>
        </mxCell>
        <mxCell id="dyM5a9dF4ckRkaVxoWVo-13" value="Love Equal" style="text;html=1;align=center;verticalAlign=middle;resizable=0;points=[];autosize=1;strokeColor=none;fillColor=none;" vertex="1" parent="1">
          <mxGeometry x="475" y="100" width="80" height="30" as="geometry" />
        </mxCell>
      </root>
    </mxGraphModel>
  </diagram>
  <diagram id="dcabae05-c285-3549-ee70-138081cf8d64" name="Mind map">
    <mxGraphModel pageWidth="850" pageHeight="1100" fold="1" pageScale="1" math="0" shadow="0">
      <root>
        <mxCell id="0" />
        <mxCell id="1" parent="0" />
        <mxCell id="6b2df6da06c5d395-1" value="Marketing" style="ellipse;whiteSpace=wrap;html=1;align=center;container=1;recursiveResize=0;treeFolding=1;fillColor=#f5f5f5;strokeColor=#666666;fontColor=#333333;" vertex="1" parent="1">
          <mxGeometry x="325" y="132" width="100" height="40" as="geometry" />
        </mxCell>
        <mxCell id="6b2df6da06c5d395-4" value="Content" style="whiteSpace=wrap;html=1;rounded=1;arcSize=50;align=center;verticalAlign=middle;container=1;recursiveResize=0;strokeWidth=1;autosize=1;spacing=4;treeFolding=1;fillColor=#dae8fc;strokeColor=#6c8ebf;fontColor=#000066;" vertex="1" parent="1">
          <mxGeometry x="455" y="67" width="80" height="30" as="geometry" />
        </mxCell>
        <mxCell id="6b2df6da06c5d395-5" value="" style="edgeStyle=entityRelationEdgeStyle;startArrow=none;endArrow=none;segment=10;curved=1;" edge="1" source="6b2df6da06c5d395-1" target="6b2df6da06c5d395-4" parent="1">
          <mxGeometry relative="1" as="geometry">
            <mxPoint x="-199.5" y="-30.5" as="sourcePoint" />
          </mxGeometry>
        </mxCell>
        <mxCell id="6b2df6da06c5d395-6" value="Social media" style="whiteSpace=wrap;html=1;shape=partialRectangle;top=0;left=0;bottom=1;right=0;points=[[0,1],[1,1]];strokeColor=#000066;fillColor=none;align=center;verticalAlign=bottom;routingCenterY=0.5;snapToPoint=1;container=1;recursiveResize=0;autosize=1;treeFolding=1;fontColor=#000066;direction=east;portConstraint=none;portConstraintRotation=0;" vertex="1" parent="1">
          <mxGeometry x="580" y="20" width="100" height="20" as="geometry" />
        </mxCell>
        <mxCell id="6b2df6da06c5d395-7" value="" style="edgeStyle=entityRelationEdgeStyle;startArrow=none;endArrow=none;segment=10;curved=1;strokeColor=#000066;fontColor=#000066;anchorPointDirection=1;sourcePortConstraint=east;" edge="1" source="6b2df6da06c5d395-4" target="6b2df6da06c5d395-6" parent="1">
          <mxGeometry relative="1" as="geometry">
            <mxPoint x="-110" y="-129" as="sourcePoint" />
          </mxGeometry>
        </mxCell>
        <mxCell id="6b2df6da06c5d395-14" value="Blog posts" style="whiteSpace=wrap;html=1;shape=partialRectangle;top=0;left=0;bottom=1;right=0;points=[[0,1],[1,1]];strokeColor=#000066;fillColor=none;align=center;verticalAlign=bottom;routingCenterY=0.5;snapToPoint=1;container=1;recursiveResize=0;autosize=1;treeFolding=1;fontColor=#000066;" vertex="1" parent="1">
          <mxGeometry x="580" y="57" width="90" height="20" as="geometry" />
        </mxCell>
        <mxCell id="6b2df6da06c5d395-15" value="" style="edgeStyle=entityRelationEdgeStyle;startArrow=none;endArrow=none;segment=10;curved=1;strokeColor=#000066;fontColor=#000066;" edge="1" source="6b2df6da06c5d395-4" target="6b2df6da06c5d395-14" parent="1">
          <mxGeometry relative="1" as="geometry">
            <mxPoint x="-80" y="-89" as="sourcePoint" />
          </mxGeometry>
        </mxCell>
        <mxCell id="6b2df6da06c5d395-16" value="Guest posts" style="whiteSpace=wrap;html=1;shape=partialRectangle;top=0;left=0;bottom=1;right=0;points=[[0,1],[1,1]];strokeColor=#000066;fillColor=none;align=center;verticalAlign=bottom;routingCenterY=0.5;snapToPoint=1;container=1;recursiveResize=0;autosize=1;treeFolding=1;fontColor=#000066;" vertex="1" parent="1">
          <mxGeometry x="580" y="92" width="100" height="20" as="geometry" />
        </mxCell>
        <mxCell id="6b2df6da06c5d395-17" value="" style="edgeStyle=entityRelationEdgeStyle;startArrow=none;endArrow=none;segment=10;curved=1;strokeColor=#000066;fontColor=#000066;" edge="1" source="6b2df6da06c5d395-4" target="6b2df6da06c5d395-16" parent="1">
          <mxGeometry relative="1" as="geometry">
            <mxPoint x="-400" y="31" as="sourcePoint" />
          </mxGeometry>
        </mxCell>
        <mxCell id="6b2df6da06c5d395-18" value="Magazine articles" style="whiteSpace=wrap;html=1;shape=partialRectangle;top=0;left=0;bottom=1;right=0;points=[[0,1],[1,1]];strokeColor=#000066;fillColor=none;align=center;verticalAlign=bottom;routingCenterY=0.5;snapToPoint=1;container=1;recursiveResize=0;autosize=1;treeFolding=1;fontColor=#000066;" vertex="1" parent="1">
          <mxGeometry x="580" y="127" width="130" height="20" as="geometry" />
        </mxCell>
        <mxCell id="6b2df6da06c5d395-19" value="" style="edgeStyle=entityRelationEdgeStyle;startArrow=none;endArrow=none;segment=10;curved=1;strokeColor=#000066;fontColor=#000066;" edge="1" source="6b2df6da06c5d395-4" target="6b2df6da06c5d395-18" parent="1">
          <mxGeometry relative="1" as="geometry">
            <mxPoint x="-130" y="1" as="sourcePoint" />
          </mxGeometry>
        </mxCell>
        <mxCell id="6b2df6da06c5d395-22" value="Events" style="whiteSpace=wrap;html=1;rounded=1;arcSize=50;align=center;verticalAlign=middle;container=1;recursiveResize=0;strokeWidth=1;autosize=1;spacing=4;treeFolding=1;fillColor=#ffe6cc;strokeColor=#D79B00;fontColor=#D79B00;" vertex="1" parent="1">
          <mxGeometry x="215" y="112" width="80" height="30" as="geometry" />
        </mxCell>
        <mxCell id="6b2df6da06c5d395-23" value="" style="edgeStyle=entityRelationEdgeStyle;startArrow=none;endArrow=none;segment=10;curved=1;" edge="1" source="6b2df6da06c5d395-1" target="6b2df6da06c5d395-22" parent="1">
          <mxGeometry relative="1" as="geometry">
            <mxPoint x="-369.5" y="89.5" as="sourcePoint" />
          </mxGeometry>
        </mxCell>
        <mxCell id="6b2df6da06c5d395-24" value="Trade fairs" style="whiteSpace=wrap;html=1;shape=partialRectangle;top=0;left=0;bottom=1;right=0;points=[[0,1],[1,1]];strokeColor=#D79B00;fillColor=none;align=center;verticalAlign=bottom;routingCenterY=0.5;snapToPoint=1;container=1;recursiveResize=0;autosize=1;treeFolding=1;fontColor=#D79B00;" vertex="1" parent="1">
          <mxGeometry x="70" y="82" width="90" height="20" as="geometry" />
        </mxCell>
        <mxCell id="6b2df6da06c5d395-25" value="" style="edgeStyle=entityRelationEdgeStyle;startArrow=none;endArrow=none;segment=10;curved=1;strokeColor=#D79B00;fontColor=#D79B00;" edge="1" source="6b2df6da06c5d395-22" target="6b2df6da06c5d395-24" parent="1">
          <mxGeometry relative="1" as="geometry">
            <mxPoint x="-354.5" y="34.5" as="sourcePoint" />
          </mxGeometry>
        </mxCell>
        <mxCell id="6b2df6da06c5d395-26" value="Presentations" style="whiteSpace=wrap;html=1;shape=partialRectangle;top=0;left=0;bottom=1;right=0;points=[[0,1],[1,1]];strokeColor=#D79B00;fillColor=none;align=center;verticalAlign=bottom;routingCenterY=0.5;snapToPoint=1;container=1;recursiveResize=0;autosize=1;treeFolding=1;fontColor=#D79B00;" vertex="1" parent="1">
          <mxGeometry x="50" y="122" width="110" height="20" as="geometry" />
        </mxCell>
        <mxCell id="6b2df6da06c5d395-27" value="" style="edgeStyle=entityRelationEdgeStyle;startArrow=none;endArrow=none;segment=10;curved=1;strokeColor=#D79B00;fontColor=#D79B00;" edge="1" source="6b2df6da06c5d395-22" target="6b2df6da06c5d395-26" parent="1">
          <mxGeometry relative="1" as="geometry">
            <mxPoint x="-354.5" y="74.5" as="sourcePoint" />
          </mxGeometry>
        </mxCell>
        <mxCell id="6b2df6da06c5d395-28" value="Conferences" style="whiteSpace=wrap;html=1;shape=partialRectangle;top=0;left=0;bottom=1;right=0;points=[[0,1],[1,1]];strokeColor=#D79B00;fillColor=none;align=center;verticalAlign=bottom;routingCenterY=0.5;snapToPoint=1;container=1;recursiveResize=0;autosize=1;treeFolding=1;fontColor=#D79B00;" vertex="1" parent="1">
          <mxGeometry x="60" y="157" width="100" height="30" as="geometry" />
        </mxCell>
        <mxCell id="6b2df6da06c5d395-29" value="" style="edgeStyle=entityRelationEdgeStyle;startArrow=none;endArrow=none;segment=10;curved=1;strokeColor=#D79B00;fontColor=#D79B00;" edge="1" source="6b2df6da06c5d395-22" target="6b2df6da06c5d395-28" parent="1">
          <mxGeometry relative="1" as="geometry">
            <mxPoint x="-354.5" y="114.5" as="sourcePoint" />
          </mxGeometry>
        </mxCell>
        <mxCell id="6b2df6da06c5d395-30" value="Videos" style="whiteSpace=wrap;html=1;shape=partialRectangle;top=0;left=0;bottom=1;right=0;points=[[0,1],[1,1]];strokeColor=#000066;fillColor=none;align=center;verticalAlign=bottom;routingCenterY=0.5;snapToPoint=1;container=1;recursiveResize=0;autosize=1;treeFolding=1;fontColor=#000066;" vertex="1" parent="1">
          <mxGeometry x="580" y="162" width="70" height="20" as="geometry" />
        </mxCell>
        <mxCell id="6b2df6da06c5d395-31" value="" style="edgeStyle=entityRelationEdgeStyle;startArrow=none;endArrow=none;segment=10;curved=1;strokeColor=#000066;fontColor=#000066;" edge="1" source="6b2df6da06c5d395-4" target="6b2df6da06c5d395-30" parent="1">
          <mxGeometry relative="1" as="geometry">
            <mxPoint x="-150" y="61" as="sourcePoint" />
          </mxGeometry>
        </mxCell>
        <mxCell id="6b2df6da06c5d395-2" value="Products" style="whiteSpace=wrap;html=1;rounded=1;arcSize=50;align=center;verticalAlign=middle;container=1;recursiveResize=0;strokeWidth=1;autosize=1;spacing=4;treeFolding=1;fillColor=#d5e8d4;strokeColor=#82b366;fontColor=#006633;" vertex="1" parent="1">
          <mxGeometry x="455" y="225" width="90" height="30" as="geometry" />
        </mxCell>
        <mxCell id="6b2df6da06c5d395-3" value="" style="edgeStyle=entityRelationEdgeStyle;startArrow=none;endArrow=none;segment=10;curved=1;strokeColor=#000000;fontColor=#006633;" edge="1" source="6b2df6da06c5d395-1" target="6b2df6da06c5d395-2" parent="1">
          <mxGeometry relative="1" as="geometry">
            <mxPoint x="-109.5" y="-128.5" as="sourcePoint" />
          </mxGeometry>
        </mxCell>
        <mxCell id="6b2df6da06c5d395-8" value="Packaging" style="whiteSpace=wrap;html=1;shape=partialRectangle;top=0;left=0;bottom=1;right=0;points=[[0,1],[1,1]];strokeColor=#82b366;fillColor=none;align=center;verticalAlign=bottom;routingCenterY=0.5;snapToPoint=1;container=1;recursiveResize=0;autosize=1;treeFolding=1;fontColor=#006633;" vertex="1" parent="1">
          <mxGeometry x="580" y="270" width="90" height="20" as="geometry" />
        </mxCell>
        <mxCell id="6b2df6da06c5d395-9" value="" style="edgeStyle=entityRelationEdgeStyle;startArrow=none;endArrow=none;segment=10;curved=1;strokeColor=#82b366;fontColor=#006633;fillColor=#d5e8d4;" edge="1" source="6b2df6da06c5d395-2" target="6b2df6da06c5d395-8" parent="1">
          <mxGeometry relative="1" as="geometry">
            <mxPoint x="-535" y="-156" as="sourcePoint" />
          </mxGeometry>
        </mxCell>
        <mxCell id="6b2df6da06c5d395-10" value="Retail presentation" style="whiteSpace=wrap;html=1;shape=partialRectangle;top=0;left=0;bottom=1;right=0;points=[[0,1],[1,1]];strokeColor=#82b366;fillColor=none;align=center;verticalAlign=bottom;routingCenterY=0.5;snapToPoint=1;container=1;recursiveResize=0;autosize=1;treeFolding=1;fontColor=#006633;direction=east;portConstraint=none;" vertex="1" parent="1">
          <mxGeometry x="580" y="235" width="130" height="20" as="geometry" />
        </mxCell>
        <mxCell id="6b2df6da06c5d395-11" value="" style="edgeStyle=entityRelationEdgeStyle;startArrow=none;endArrow=none;segment=10;curved=1;strokeColor=#82b366;fontColor=#006633;fillColor=#d5e8d4;" edge="1" source="6b2df6da06c5d395-2" target="6b2df6da06c5d395-10" parent="1">
          <mxGeometry relative="1" as="geometry">
            <mxPoint x="-710" y="59" as="sourcePoint" />
          </mxGeometry>
        </mxCell>
      </root>
    </mxGraphModel>
  </diagram>
</mxfile>
